<svg width="50" height="50" viewBox="0 0 50 50" fill="none" xmlns="http://www.w3.org/2000/svg">
<mask id="path-1-outside-1_633_936" maskUnits="userSpaceOnUse" x="0" y="0" width="50" height="50" fill="black">
<rect fill="white" width="50" height="50"/>
<path fill-rule="evenodd" clip-rule="evenodd" d="M19.1539 30.2307L19.1539 45H30.2308V30.2307H45V19.1538H30.2308V5H19.1539L19.1539 19.1538H5V30.2307H19.1539Z"/>
</mask>
<path d="M19.1539 45H14.1539V50H19.1539V45ZM19.1539 30.2307H24.1539V25.2307H19.1539V30.2307ZM30.2308 45V50H35.2308V45H30.2308ZM30.2308 30.2307V25.2307H25.2308V30.2307H30.2308ZM45 30.2307V35.2307H50V30.2307H45ZM45 19.1538H50V14.1538H45V19.1538ZM30.2308 19.1538H25.2308V24.1538H30.2308V19.1538ZM30.2308 5H35.2308V0H30.2308V5ZM19.1539 5V0H14.1539V5L19.1539 5ZM19.1539 19.1538V24.1538H24.1539L24.1539 19.1538H19.1539ZM5 19.1538V14.1538H0V19.1538H5ZM5 30.2307H0V35.2307H5V30.2307ZM24.1539 45L24.1539 30.2307H14.1539L14.1539 45H24.1539ZM30.2308 40H19.1539V50H30.2308V40ZM25.2308 30.2307V45H35.2308V30.2307H25.2308ZM45 25.2307H30.2308V35.2307H45V25.2307ZM40 19.1538V30.2307H50V19.1538H40ZM30.2308 24.1538H45V14.1538H30.2308V24.1538ZM25.2308 5V19.1538H35.2308V5H25.2308ZM19.1539 10H30.2308V0H19.1539V10ZM24.1539 19.1538V5L14.1539 5L14.1539 19.1538H24.1539ZM5 24.1538H19.1539V14.1538H5V24.1538ZM10 30.2307V19.1538H0V30.2307H10ZM19.1539 25.2307H5V35.2307H19.1539V25.2307Z" fill="#FFBE2E" mask="url(#path-1-outside-1_633_936)"/>
</svg>
