<svg width="235" height="235" viewBox="0 0 235 235" fill="none" xmlns="http://www.w3.org/2000/svg">
<path d="M112.871 3.33794C114.564 -0.808793 120.436 -0.808801 122.129 3.33794L153.09 79.1708C153.598 80.4148 154.585 81.402 155.829 81.9099L231.662 112.871C235.809 114.564 235.809 120.436 231.662 122.129L155.829 153.09C154.585 153.598 153.598 154.585 153.09 155.829L122.129 231.662C120.436 235.809 114.564 235.809 112.871 231.662L81.9099 155.829C81.402 154.585 80.4148 153.598 79.1708 153.09L3.33794 122.129C-0.808793 120.436 -0.808801 114.564 3.33794 112.871L79.1708 81.9099C80.4148 81.402 81.402 80.4148 81.9099 79.1708L112.871 3.33794Z" fill="#F2F2F2"/>
</svg>
