<svg width="52" height="52" viewBox="0 0 52 52" fill="none" xmlns="http://www.w3.org/2000/svg">
<path d="M24.1773 2.03572C24.8859 0.466685 27.1141 0.466686 27.8227 2.03572L34.4006 16.5999C34.601 17.0436 34.9564 17.399 35.4001 17.5994L49.9643 24.1773C51.5333 24.8859 51.5333 27.1141 49.9643 27.8227L35.4001 34.4006C34.9564 34.601 34.601 34.9564 34.4006 35.4001L27.8227 49.9643C27.1141 51.5333 24.8859 51.5333 24.1773 49.9643L17.5994 35.4001C17.399 34.9564 17.0436 34.601 16.5999 34.4006L2.03572 27.8227C0.466685 27.1141 0.466686 24.8859 2.03572 24.1773L16.5999 17.5994C17.0436 17.399 17.399 17.0436 17.5994 16.5999L24.1773 2.03572Z" fill="#ECAF28"/>
</svg>
