<svg width="70" height="70" viewBox="0 0 70 70" fill="none" xmlns="http://www.w3.org/2000/svg">
<path d="M33.1773 2.03572C33.8859 0.466687 36.1141 0.466685 36.8227 2.03572L46.2007 22.7998C46.4011 23.2435 46.7565 23.5989 47.2002 23.7993L67.9643 33.1773C69.5333 33.8859 69.5333 36.1141 67.9643 36.8227L47.2002 46.2007C46.7565 46.4011 46.4011 46.7565 46.2007 47.2002L36.8227 67.9643C36.1141 69.5333 33.8859 69.5333 33.1773 67.9643L23.7993 47.2002C23.5989 46.7565 23.2435 46.4011 22.7998 46.2007L2.03572 36.8227C0.466687 36.1141 0.466685 33.8859 2.03572 33.1773L22.7998 23.7993C23.2435 23.5989 23.5989 23.2435 23.7993 22.7998L33.1773 2.03572Z" fill="#FFBE2E"/>
</svg>
